<svg width="0" height="0" class="hidden">
  <symbol xmlns="http://www.w3.org/2000/svg" viewBox="0 0 64 64" id="local-phone">
    <path d="m51.281 40.691-6.773-.77a5.303 5.303 0 0 0-4.375 1.52l-4.906 4.907c-7.547-3.84-13.735-10-17.575-17.575l4.934-4.933a5.303 5.303 0 0 0 1.52-4.375l-.774-6.719a5.337 5.337 0 0 0-5.305-4.719h-4.613c-3.016 0-5.52 2.508-5.336 5.52 1.414 22.773 19.629 40.96 42.375 42.375 3.012.183 5.52-2.32 5.52-5.336v-4.613c.027-2.692-2-4.961-4.692-5.282Zm0 0"></path>
  </symbol>
  <symbol xmlns="http://www.w3.org/2000/svg" viewBox="0 0 64 64" id="email">
    <path d="M53.332 21.332 32 34.668 10.668 21.332V16L32 29.332 53.332 16m0-5.332H10.668A5.315 5.315 0 0 0 5.332 16v32a5.335 5.335 0 0 0 5.336 5.332h42.664A5.335 5.335 0 0 0 58.668 48V16a5.332 5.332 0 0 0-5.336-5.332Zm0 0"></path>
  </symbol>
  <symbol xmlns="http://www.w3.org/2000/svg" viewBox="0 0 32 32" id="location-pin">
    <path d="M16 2.668A9.324 9.324 0 0 0 6.668 12c0 2.32.664 4.492 1.879 6.453 1.265 2.055 2.933 3.813 4.215 5.867.625 1 1.078 1.934 1.558 3.012.348.734.625 2 1.68 2s1.332-1.266 1.668-2c.492-1.078.934-2.012 1.559-3.012 1.28-2.039 2.945-3.8 4.214-5.867 1.227-1.96 1.891-4.133 1.891-6.453A9.324 9.324 0 0 0 16 2.668Zm0 13a3.336 3.336 0 0 1-3.332-3.336 3.333 3.333 0 0 1 6.664 0A3.336 3.336 0 0 1 16 15.668Zm0 0"></path>
  </symbol>
</svg>