<svg width="0" height="0" class="hidden">
  <symbol role="img" xmlns="http://www.w3.org/2000/svg" viewBox="0 0 24 24" id="x">
    <title>X</title>
    <path d="M18.901 1.153h3.68l-8.04 9.19L24 22.846h-7.406l-5.8-7.584-6.638 7.584H.474l8.6-9.83L0 1.154h7.594l5.243 6.932ZM17.61 20.644h2.039L6.486 3.24H4.298Z"></path>
  </symbol>
  <symbol role="img" xmlns="http://www.w3.org/2000/svg" viewBox="0 0 24 24" id="linkedin">
    <title>LinkedIn</title>
    <path d="M20.447 20.452h-3.554v-5.569c0-1.328-.027-3.037-1.852-3.037-1.853 0-2.136 1.445-2.136 2.939v5.667H9.351V9h3.414v1.561h.046c.477-.9 1.637-1.85 3.37-1.85 3.601 0 4.267 2.37 4.267 5.455v6.286zM5.337 7.433c-1.144 0-2.063-.926-2.063-2.065 0-1.138.92-2.063 2.063-2.063 1.14 0 2.064.925 2.064 2.063 0 1.139-.925 2.065-2.064 2.065zm1.782 13.019H3.555V9h3.564v11.452zM22.225 0H1.771C.792 0 0 .774 0 1.729v20.542C0 23.227.792 24 1.771 24h20.451C23.2 24 24 23.227 24 22.271V1.729C24 .774 23.2 0 22.222 0h.003z"></path>
  </symbol>
  <symbol role="img" xmlns="http://www.w3.org/2000/svg" viewBox="0 0 24 24" id="telegram">
    <title>Telegram</title>
    <path d="M11.944 0A12 12 0 0 0 0 12a12 12 0 0 0 12 12 12 12 0 0 0 12-12A12 12 0 0 0 12 0a12 12 0 0 0-.056 0zm4.962 7.224c.1-.002.321.023.465.14a.506.506 0 0 1 .171.325c.016.093.036.306.02.472-.18 1.898-.962 6.502-1.36 8.627-.168.9-.499 1.201-.82 1.23-.696.065-1.225-.46-1.9-.902-1.056-.693-1.653-1.124-2.678-1.8-1.185-.78-.417-1.21.258-1.91.177-.184 3.247-2.977 3.307-3.23.007-.032.014-.15-.056-.212s-.174-.041-.249-.024c-.106.024-1.793 1.14-5.061 3.345-.48.33-.913.49-1.302.48-.428-.008-1.252-.241-1.865-.44-.752-.245-1.349-.374-1.297-.789.027-.216.325-.437.893-.663 3.498-1.524 5.83-2.529 6.998-3.014 3.332-1.386 4.025-1.627 4.476-1.635z"></path>
  </symbol>
  <symbol xmlns="http://www.w3.org/2000/svg" viewBox="0 0 64 64" id="email">
    <path d="M53.332 21.332 32 34.668 10.668 21.332V16L32 29.332 53.332 16m0-5.332H10.668A5.315 5.315 0 0 0 5.332 16v32a5.335 5.335 0 0 0 5.336 5.332h42.664A5.335 5.335 0 0 0 58.668 48V16a5.332 5.332 0 0 0-5.336-5.332Zm0 0"></path>
  </symbol>
  <symbol xmlns="http://www.w3.org/2000/svg" viewBox="0 0 64 64" id="local-phone">
    <path d="m51.281 40.691-6.773-.77a5.303 5.303 0 0 0-4.375 1.52l-4.906 4.907c-7.547-3.84-13.735-10-17.575-17.575l4.934-4.933a5.303 5.303 0 0 0 1.52-4.375l-.774-6.719a5.337 5.337 0 0 0-5.305-4.719h-4.613c-3.016 0-5.52 2.508-5.336 5.52 1.414 22.773 19.629 40.96 42.375 42.375 3.012.183 5.52-2.32 5.52-5.336v-4.613c.027-2.692-2-4.961-4.692-5.282Zm0 0"></path>
  </symbol>
  <symbol xmlns="http://www.w3.org/2000/svg" viewBox="0 0 32 32" id="location-pin">
    <path d="M16 2.668A9.324 9.324 0 0 0 6.668 12c0 2.32.664 4.492 1.879 6.453 1.265 2.055 2.933 3.813 4.215 5.867.625 1 1.078 1.934 1.558 3.012.348.734.625 2 1.68 2s1.332-1.266 1.668-2c.492-1.078.934-2.012 1.559-3.012 1.28-2.039 2.945-3.8 4.214-5.867 1.227-1.96 1.891-4.133 1.891-6.453A9.324 9.324 0 0 0 16 2.668Zm0 13a3.336 3.336 0 0 1-3.332-3.336 3.333 3.333 0 0 1 6.664 0A3.336 3.336 0 0 1 16 15.668Zm0 0"></path>
  </symbol>
</svg>